<svg id="Layer_1" data-name="Layer 1" xmlns="http://www.w3.org/2000/svg" viewBox="0 0 555.5 555.5"><defs><style>.cls-1,.cls-2{fill:#fdb518;}.cls-1{opacity:0.3;}.cls-3{fill:#333;stroke:#fff;stroke-linecap:round;stroke-linejoin:round;stroke-width:6px;}</style></defs><circle class="cls-1" cx="277.75" cy="277.75" r="277.75"/><circle class="cls-2" cx="277.75" cy="277.75" r="189.59"/><path class="cls-3" d="M396.13,421.65a9,9,0,0,0-9-9H353.62v-8.08a14.22,14.22,0,0,0-14.22-14.22h-.29a14.22,14.22,0,0,0-14.22,14.22v8.08H282.38v42.51H292.7a14.22,14.22,0,0,1,14.22,14.23v.28A14.22,14.22,0,0,1,292.7,483.9H282.38v42.51H387.13a9,9,0,0,0,9-9Z" transform="translate(-26.17 -112.12)"/><path class="cls-3" d="M292.45,455.1h-8.09V412.65H241.85v-8.08a14.22,14.22,0,0,0-14.22-14.22h-.29a14.22,14.22,0,0,0-14.22,14.22v8.08H170.61V517.41a9,9,0,0,0,9,9H284.36V483.83h8.09a14.22,14.22,0,0,0,14.22-14.22v-.29A14.22,14.22,0,0,0,292.45,455.1Z" transform="translate(-26.17 -112.12)"/><path class="cls-3" d="M179.31,300.81H284.6v42.72h8.12A14.29,14.29,0,0,1,307,357.83v.28a14.29,14.29,0,0,1-14.29,14.3H284.6v42.72H241.87V404.76a14.29,14.29,0,0,0-14.29-14.3h-.29a14.3,14.3,0,0,0-14.3,14.3v10.37H170.31s0,0,0,0V309.84A9,9,0,0,1,179.31,300.81Z" transform="translate(-26.17 -112.12)"/><path class="cls-3" d="M396.16,367.58V359.5a14.22,14.22,0,0,0-14.22-14.22h-.29a14.22,14.22,0,0,0-14.22,14.22v8.16H324.74V324.93h8.72a14.29,14.29,0,0,0,14.29-14.29v-.29a14.29,14.29,0,0,0-14.29-14.3h-8.72V253.33H424.92A12.65,12.65,0,0,1,437.57,266v94.86a6.82,6.82,0,0,1-6.82,6.82H396.16" transform="translate(-26.17 -112.12)"/></svg>