<svg id="Layer_1" data-name="Layer 1" xmlns="http://www.w3.org/2000/svg" viewBox="0 0 508.11 508.11"><defs><style>.cls-1,.cls-2{fill:#fdb518;}.cls-1{opacity:0.3;}.cls-3,.cls-4,.cls-5{fill:#fff;stroke:#595959;stroke-miterlimit:10;stroke-width:6px;}.cls-3{opacity:0.9;}.cls-4{opacity:0.79;}</style></defs><circle class="cls-1" cx="254.05" cy="254.05" r="254.05"/><circle class="cls-2" cx="285.57" cy="412.48" r="175.87" transform="translate(-252.74 151.13) rotate(-45)"/><path class="cls-3" d="M189.23,406.56c2.68,39.89,13,75.73,46.33,100.71C255.27,522.06,278.44,528,302.37,527c51.73-2.14,94.88-44.89,97.44-97.48,1.6-33-11.11-61.11-36.94-83.36-24.41-21-54.18-24.35-88.41-26.76,35.51-18,82.86-3.28,109.84,30.32,35.86,44.65,37.39,101.43,3.91,144.57S294,551.28,244.39,526.84C209.82,509.82,168.59,458,189.23,406.56Z" transform="translate(-44.71 -171.62)"/><path class="cls-3" d="M239.79,402.16c6.47,57.71,23.06,77.33,61.06,74.79,30.37-2,50.39-24.76,48.88-55.46-1.67-33.87-25.67-51.4-74-52,2.64-4.56,4-10.3,6.66-11,28.43-7.46,61,7.45,75.59,33.85,13.46,24.34,8,59.16-12.38,79.5-22.1,22-54.9,27.19-81.75,12.92C238.59,471.3,223.64,440,230,412.14,230.72,408.77,235.54,406.32,239.79,402.16Z" transform="translate(-44.71 -171.62)"/><path class="cls-4" d="M226,281c23.28,10.24,40.4,25.42,43.28,52.59,1.86,17.51-6.23,31.65-15.37,45.84l25,23.59c24.81-4,35.47.19,37.64,14.87,2.09,14.12-7.43,25.85-21.16,26.08-15.45.26-21.59-8.66-22-34l-25.49-24.51C233.52,391.11,220,399,203.22,396.39c-24.18-3.75-37.51-20-49.59-38.57V321.66c9.38-17.74,24.09-30.14,40.68-40.68Z" transform="translate(-44.71 -171.62)"/><circle class="cls-5" cx="165.85" cy="166.2" r="60.49"/></svg>