<svg id="Layer_1" data-name="Layer 1" xmlns="http://www.w3.org/2000/svg" viewBox="0 0 555.5 555.5"><defs><style>.cls-1,.cls-2{fill:#fdb518;}.cls-1{opacity:0.3;}.cls-3{fill:none;stroke-width:9px;stroke-dasharray:0 25.18 0 25.18;}.cls-3,.cls-4{stroke:#fff;stroke-linecap:round;stroke-linejoin:round;}.cls-4{fill:#333;stroke-width:6px;}</style></defs><circle class="cls-1" cx="277.75" cy="277.75" r="277.75"/><circle class="cls-2" cx="277.75" cy="277.75" r="189.59"/><path class="cls-3" d="M104.29,523.06V267.75c0-28.16,23.65-51,52.82-51h45.35" transform="translate(-26.17 -112.12)"/><path class="cls-3" d="M503.54,256.67V512c0,28.16-23.64,51-52.81,51H408.64" transform="translate(-26.17 -112.12)"/><g id="ÒËÒÚÂÏÌ_È_·ÎÓÍ_6_" data-name="ÒËÒÚÂÏÌ˚È_·ÎÓÍ_6_"><rect class="cls-4" x="356.96" y="211.06" width="86.36" height="23.38"/><rect class="cls-4" x="356.96" y="234.43" width="86.36" height="139.67"/><rect class="cls-4" x="356.96" y="181.39" width="86.36" height="29.67"/><line class="cls-4" x1="356.97" y1="222.75" x2="443.32" y2="222.75"/><line class="cls-4" x1="375.7" y1="316.25" x2="424.59" y2="316.25"/><line class="cls-4" x1="375.7" y1="327.94" x2="424.59" y2="327.94"/><line class="cls-4" x1="375.7" y1="339.62" x2="424.59" y2="339.62"/><line class="cls-4" x1="409.92" y1="270.39" x2="409.92" y2="286.06"/><line class="cls-4" x1="400.15" y1="265.52" x2="400.15" y2="290.92"/><line class="cls-4" x1="390.37" y1="270.39" x2="390.37" y2="286.06"/><line class="cls-4" x1="375.7" y1="351.31" x2="424.59" y2="351.31"/></g><g id="ÏÓÌËÚÓ__119_" data-name="ÏÓÌËÚÓ_119_"><g id="ÍÓÏÔ_ÚÂ__40_" data-name="ÍÓÏÔ¸˛ÚÂ_40_"><rect class="cls-4" x="112.17" y="181.39" width="213.63" height="143.61"/><polyline class="cls-4" points="250.07 356.43 242.02 324.99 195.95 324.99 187.9 356.43"/><polygon class="cls-4" points="284.26 374.11 153.71 374.11 164.03 356.42 273.94 356.42 284.26 374.11"/></g><line class="cls-4" x1="187.9" y1="270.12" x2="129.76" y2="324.99"/><line class="cls-4" x1="280.91" y1="182.34" x2="215.14" y2="244.41"/><line class="cls-4" x1="272.67" y1="268.03" x2="212.33" y2="324.99"/><line class="cls-4" x1="325.8" y1="217.9" x2="292.8" y2="249.04"/><line class="cls-4" x1="172.48" y1="226.23" x2="112.56" y2="282.78"/><line class="cls-4" x1="218.98" y1="182.34" x2="193.72" y2="206.18"/></g></svg>