<svg id="Layer_1" data-name="Layer 1" xmlns="http://www.w3.org/2000/svg" viewBox="0 0 508.11 508.11"><defs><style>.cls-1,.cls-2{fill:#fdb518;}.cls-1{opacity:0.3;}.cls-3{fill:#333;stroke:#fff;stroke-linecap:round;stroke-linejoin:round;stroke-width:4.5px;}.cls-4{fill:#fff;}</style></defs><circle class="cls-1" cx="254.05" cy="254.05" r="254.05"/><circle class="cls-2" cx="298.77" cy="425.67" r="175.87" transform="translate(-258.2 164.32) rotate(-45)"/><g id="ÍÓÏ_Ì__ÒÌËÁÛ_11_" data-name="ÍÓÏ‡Ì‰‡_ÒÌËÁÛ_11_"><circle class="cls-3" cx="341.86" cy="304.59" r="16.49"/><path class="cls-3" d="M363.25,520.34a18.66,18.66,0,0,1,18.47-16h9.71a18.66,18.66,0,0,1,18.47,16" transform="translate(-44.71 -171.62)"/><g id="ÏÓÌËÚÓ__125_" data-name="ÏÓÌËÚÓ_125_"><polyline class="cls-3" points="349.25 396.09 379.59 396.09 379.59 348.72 365.18 348.72 318.54 348.72 304.13 348.72 304.13 396.09 334.47 396.09"/><rect class="cls-3" x="321.65" y="362.68" width="40.43" height="19.45"/><polyline class="cls-3" points="334.47 413.64 334.47 382.13 349.25 382.13 349.25 413.64"/><line class="cls-3" x1="318.33" y1="413.64" x2="365.39" y2="413.64"/></g><circle class="cls-3" cx="253.08" cy="304.59" r="16.49"/><path class="cls-3" d="M274.47,520.34a18.66,18.66,0,0,1,18.47-16h9.71a18.65,18.65,0,0,1,18.47,16" transform="translate(-44.71 -171.62)"/><g id="ÏÓÌËÚÓ__124_" data-name="ÏÓÌËÚÓ_124_"><polyline class="cls-3" points="260.47 396.09 290.82 396.09 290.82 348.72 276.41 348.72 229.76 348.72 215.35 348.72 215.35 396.09 245.69 396.09"/><rect class="cls-3" x="232.87" y="362.68" width="40.43" height="19.45"/><polyline class="cls-3" points="245.69 413.64 245.69 382.13 260.47 382.13 260.47 413.64"/><line class="cls-3" x1="229.55" y1="413.64" x2="276.61" y2="413.64"/></g><circle class="cls-3" cx="164.31" cy="304.59" r="16.49"/><path class="cls-3" d="M185.7,520.34a18.65,18.65,0,0,1,18.47-16h9.7a18.65,18.65,0,0,1,18.47,16" transform="translate(-44.71 -171.62)"/><g id="ÏÓÌËÚÓ__123_" data-name="ÏÓÌËÚÓ_123_"><polyline class="cls-3" points="171.7 396.09 202.04 396.09 202.04 348.72 187.63 348.72 140.98 348.72 126.57 348.72 126.57 396.09 156.91 396.09"/><rect class="cls-3" x="144.09" y="362.68" width="40.43" height="19.45"/><polyline class="cls-3" points="156.91 413.64 156.91 382.13 171.7 382.13 171.7 413.64"/><line class="cls-3" x1="140.77" y1="413.64" x2="187.84" y2="413.64"/></g></g><path class="cls-4" d="M281.45,437.05l-10.63-32.57h4.54l5.08,16c1.4,4.39,2.61,8.36,3.48,12.17H284c.92-3.77,2.27-7.87,3.72-12.13l5.51-16.09h4.49l-11.64,32.57Z" transform="translate(-44.71 -171.62)"/><path class="cls-4" d="M307.45,431.93a14.92,14.92,0,0,0,7.54,2.13c4.3,0,6.82-2.27,6.82-5.56,0-3.05-1.74-4.78-6.14-6.48-5.32-1.88-8.6-4.63-8.6-9.22,0-5.08,4.2-8.85,10.53-8.85a14.79,14.79,0,0,1,7.2,1.6L323.64,409a13,13,0,0,0-6.18-1.55c-4.45,0-6.14,2.66-6.14,4.88,0,3.05,2,4.54,6.47,6.28,5.51,2.13,8.32,4.79,8.32,9.57,0,5-3.72,9.37-11.41,9.37a16.83,16.83,0,0,1-8.31-2.07Z" transform="translate(-44.71 -171.62)"/><g id="ÍÓÏ_Ì__Ò_Â_ıÛ_11_" data-name="ÍÓÏ‡Ì‰‡_Ò‚ÂıÛ_11_"><circle class="cls-3" cx="386.57" cy="273.1" r="16.49" transform="translate(-119.8 -2.89) rotate(-22.5)"/><path class="cls-3" d="M363.25,317.24a18.66,18.66,0,0,1,18.47-16h9.71a18.66,18.66,0,0,1,18.47,16" transform="translate(-44.71 -171.62)"/><g id="ÏÓÌËÚÓ__122_" data-name="ÏÓÌËÚÓ_122_"><polyline class="cls-3" points="349.25 192.99 379.59 192.99 379.59 145.62 365.18 145.62 318.54 145.62 304.13 145.62 304.13 192.99 334.47 192.99"/><rect class="cls-3" x="321.65" y="159.58" width="40.43" height="19.45"/><polyline class="cls-3" points="334.47 210.54 334.47 179.03 349.25 179.03 349.25 210.54"/><line class="cls-3" x1="318.33" y1="210.54" x2="365.39" y2="210.54"/></g><circle class="cls-3" cx="297.8" cy="273.1" r="16.49" transform="translate(-126.56 -36.87) rotate(-22.5)"/><path class="cls-3" d="M274.47,317.24a18.66,18.66,0,0,1,18.47-16h9.71a18.65,18.65,0,0,1,18.47,16" transform="translate(-44.71 -171.62)"/><g id="ÏÓÌËÚÓ__121_" data-name="ÏÓÌËÚÓ_121_"><polyline class="cls-3" points="260.47 192.99 290.82 192.99 290.82 145.62 276.41 145.62 229.76 145.62 215.35 145.62 215.35 192.99 245.69 192.99"/><rect class="cls-3" x="232.87" y="159.58" width="40.43" height="19.45"/><polyline class="cls-3" points="245.69 210.54 245.69 179.03 260.47 179.03 260.47 210.54"/><line class="cls-3" x1="229.55" y1="210.54" x2="276.61" y2="210.54"/></g><circle class="cls-3" cx="209.02" cy="273.1" r="16.49" transform="translate(-133.32 -70.84) rotate(-22.5)"/><path class="cls-3" d="M185.7,317.24a18.65,18.65,0,0,1,18.47-16h9.7a18.65,18.65,0,0,1,18.47,16" transform="translate(-44.71 -171.62)"/><g id="ÏÓÌËÚÓ__120_" data-name="ÏÓÌËÚÓ_120_"><polyline class="cls-3" points="171.7 192.99 202.04 192.99 202.04 145.62 187.63 145.62 140.98 145.62 126.57 145.62 126.57 192.99 156.91 192.99"/><rect class="cls-3" x="144.09" y="159.58" width="40.43" height="19.45"/><polyline class="cls-3" points="156.91 210.54 156.91 179.03 171.7 179.03 171.7 210.54"/><line class="cls-3" x1="140.77" y1="210.54" x2="187.84" y2="210.54"/></g></g><line class="cls-3" x1="126.57" y1="222.14" x2="379.59" y2="222.14"/><line class="cls-3" x1="126.57" y1="276.49" x2="379.59" y2="276.49"/></svg>