<svg id="Layer_1" data-name="Layer 1" xmlns="http://www.w3.org/2000/svg" viewBox="0 0 508.11 508.11"><defs><style>.cls-1,.cls-2{fill:#fdb518;}.cls-1{opacity:0.3;}.cls-3{fill:#333;stroke:#fff;stroke-linecap:round;stroke-linejoin:round;stroke-width:4.5px;}</style></defs><circle class="cls-1" cx="254.05" cy="254.05" r="254.05"/><circle class="cls-2" cx="298.77" cy="425.67" r="175.87" transform="translate(-258.2 164.32) rotate(-45)"/><g id="Ë_ÓÍ_20_" data-name="Ë„ÓÍ_20_"><path class="cls-3" d="M342.42,341.31a24.5,24.5,0,0,1,20.77-11.44H376a24.53,24.53,0,0,1,20.78,11.44" transform="translate(-44.71 -171.62)"/></g><g id="Ë_ÓÍ_19_" data-name="Ë„ÓÍ_19_"><path class="cls-3" d="M200.79,484.86a24.53,24.53,0,0,1,20.77-11.45h12.79a24.5,24.5,0,0,1,20.77,11.45" transform="translate(-44.71 -171.62)"/></g><g id="ÎËÌË__ÒÚÓÎ__20_" data-name="ÎËÌËˇ_ÒÚÓÎ‡_20_"><line class="cls-3" x1="243.16" y1="207.58" x2="274.4" y2="207.58"/><line class="cls-3" x1="375.33" y1="207.58" x2="399.4" y2="207.58"/></g><g id="ÏÓÌËÚÓ__127_" data-name="ÏÓÌËÚÓ_127_"><polyline class="cls-3" points="334.75 226.23 375.33 226.23 375.33 169.7 356.06 169.7 293.67 169.7 274.4 169.7 274.4 226.23 314.98 226.23"/><rect class="cls-3" x="297.83" y="186.36" width="54.07" height="23.21"/><polyline class="cls-3" points="314.98 247.17 314.98 209.57 334.75 209.57 334.75 247.17"/><polygon class="cls-3" points="356.34 256.79 293.39 256.79 304.17 247.17 345.57 247.17 356.34 256.79"/><line class="cls-3" x1="324.87" y1="193.64" x2="324.87" y2="202.29"/><line class="cls-3" x1="334.75" y1="193.64" x2="334.75" y2="202.29"/><line class="cls-3" x1="314.98" y1="193.64" x2="314.98" y2="202.29"/><line class="cls-3" x1="286.12" y1="186.36" x2="286.12" y2="209.57"/><line class="cls-3" x1="363.62" y1="186.36" x2="363.62" y2="209.57"/></g><path class="cls-3" d="M339,300.11c0-18.34,13.72-33.2,30.63-33.2s30.63,14.86,30.63,33.2" transform="translate(-44.71 -171.62)"/><path class="cls-3" d="M355.78,312.81a11.21,11.21,0,0,1-4.32.85c-6.91,0-12.5-6.07-12.5-13.56s5.59-13.55,12.5-13.55a11.21,11.21,0,0,1,4.32.86" transform="translate(-44.71 -171.62)"/><path class="cls-3" d="M383.38,287.41a11.21,11.21,0,0,1,4.32-.86c6.91,0,12.5,6.08,12.5,13.55s-5.59,13.56-12.5,13.56a11.21,11.21,0,0,1-4.32-.85" transform="translate(-44.71 -171.62)"/><g id="ÎËÌË__ÒÚÓÎ__19_" data-name="ÎËÌËˇ_ÒÚÓÎ‡_19_"><line class="cls-3" x1="108.71" y1="351.12" x2="132.78" y2="351.12"/><line class="cls-3" x1="233.71" y1="351.12" x2="264.95" y2="351.12"/></g><g id="ÏÓÌËÚÓ__126_" data-name="ÏÓÌËÚÓ_126_"><polyline class="cls-3" points="193.13 369.77 233.71 369.77 233.71 313.25 214.44 313.25 152.05 313.25 132.78 313.25 132.78 369.77 173.36 369.77"/><rect class="cls-3" x="156.21" y="329.9" width="54.07" height="23.21"/><polyline class="cls-3" points="173.36 390.72 173.36 353.12 193.13 353.12 193.13 390.72"/><polygon class="cls-3" points="214.71 400.33 151.77 400.33 162.54 390.72 203.94 390.72 214.71 400.33"/><line class="cls-3" x1="183.24" y1="337.18" x2="183.24" y2="345.84"/><line class="cls-3" x1="193.13" y1="337.18" x2="193.13" y2="345.84"/><line class="cls-3" x1="173.36" y1="337.18" x2="173.36" y2="345.84"/><line class="cls-3" x1="144.49" y1="329.9" x2="144.49" y2="353.12"/><line class="cls-3" x1="221.99" y1="329.9" x2="221.99" y2="353.12"/></g><path class="cls-3" d="M197.33,443.66c0-18.34,13.71-33.2,30.63-33.2s30.62,14.86,30.62,33.2" transform="translate(-44.71 -171.62)"/><path class="cls-3" d="M214.16,456.36a11.41,11.41,0,0,1-4.33.85c-6.9,0-12.49-6.08-12.49-13.56s5.59-13.55,12.49-13.55a11.41,11.41,0,0,1,4.33.85" transform="translate(-44.71 -171.62)"/><path class="cls-3" d="M241.75,431a11.44,11.44,0,0,1,4.33-.85c6.9,0,12.49,6.08,12.49,13.55s-5.59,13.56-12.49,13.56a11.44,11.44,0,0,1-4.33-.85" transform="translate(-44.71 -171.62)"/><line class="cls-3" x1="141.31" y1="135.07" x2="183.24" y2="177"/><line class="cls-3" x1="204.2" y1="197.96" x2="245.08" y2="238.84"/><line class="cls-3" x1="264.72" y1="258.48" x2="306.74" y2="300.5"/><line class="cls-3" x1="324.87" y1="318.63" x2="367.7" y2="361.46"/><ellipse class="cls-3" cx="324.87" cy="128.49" rx="18.12" ry="19.64"/><ellipse class="cls-3" cx="183.24" cy="272.04" rx="18.12" ry="19.64"/></svg>